<mxfile host="app.diagrams.net" modified="2024-05-31T02:48:00.680Z" agent="Mozilla/5.0 (Windows NT 10.0; Win64; x64) AppleWebKit/537.36 (KHTML, like Gecko) Chrome/121.0.0.0 Safari/537.36 Avast/121.0.0.0" version="24.4.10" etag="5-2OHlTUqX1PCUd96iE5" type="github">
  <diagram name="第 1 页" id="krRlGbCfhH1VjFy57gKS">
    <mxGraphModel>
      <root>
        <mxCell id="0" />
        <mxCell id="1" parent="0" />
      </root>
    </mxGraphModel>
  </diagram>
</mxfile>
